<?xml version="1.0" encoding="utf-8"?>
<!-- Generator: Adobe Illustrator 25.0.0, SVG Export Plug-In . SVG Version: 6.00 Build 0)  -->
<svg version="1.1" id="Camada_1" xmlns:serif="http://www.serif.com/"
	 xmlns="http://www.w3.org/2000/svg" xmlns:xlink="http://www.w3.org/1999/xlink" x="0px" y="0px" viewBox="0 0 595.3 841.9"
	 style="enable-background:new 0 0 595.3 841.9;" xml:space="preserve">
<style type="text/css">
	.st0{fill:none;}
	.st1{fill:none;stroke:#FFFFFF;stroke-width:19.3629;stroke-linecap:round;stroke-linejoin:round;stroke-miterlimit:1.4106;}
	.st2{fill:none;stroke:#FFFFFF;stroke-width:24.57;stroke-linecap:round;stroke-linejoin:round;stroke-miterlimit:1.5;}
	.st3{fill:none;stroke:#FFFFFF;stroke-width:14.63;stroke-linecap:round;stroke-linejoin:round;stroke-miterlimit:1.5;}
</style>
<g transform="matrix(1,0,0,1,-2910,-302)">
	<g id="Artboard2" transform="matrix(0.71066,0,0,0.716867,841.572,85.1614)">
		<rect x="2910.6" y="536.8" class="st0" width="836.4" height="704.8"/>
		<g id="Logo-2-black" transform="matrix(1.40714,0,0,1.39496,2459.95,-997.409)" serif:id="Logo 2 black">
			<g transform="matrix(0.866025,-0.5,0.5,0.866025,-517.151,451.261)">
				<path class="st1" d="M351.3,1314.9l-59.8,0"/>
				<g transform="matrix(6.12323e-17,1,-1,6.12323e-17,1774.14,607.157)">
					<path class="st1" d="M565.4,1280.5h-59.8"/>
				</g>
				<g transform="matrix(0.449718,0.449718,-0.707107,0.707107,1124.05,47.3737)">
					<path class="st2" d="M484.6,1342.1h-59.8"/>
				</g>
				<g transform="matrix(1,0,0,1,366.24,0)">
					<path class="st1" d="M329.5,1314.9l-59.8,0"/>
				</g>
				<g transform="matrix(0.449718,-0.449718,0.707107,0.707107,-317.173,407.481)">
					<path class="st2" d="M176.1,1215l-59.8,0"/>
				</g>
			</g>
			<g transform="matrix(-0.270119,-0.799525,1.70706,-0.57673,-18.4291,2221.01)">
				<path class="st3" d="M648.4,357.5c0,0,124.6,55.8,124.6,124.6c0,68.8-124.6,124.6-124.6,124.6s-124.6-55.8-124.6-124.6
					C523.8,413.3,648.4,357.5,648.4,357.5z"/>
			</g>
			<g transform="matrix(1,0,0,1,-2589.76,629.849)">
				<path class="st1" d="M3064,766.9c-9.1-15.8-14.2-34.1-14.2-53.6c0-59.5,48.3-107.8,107.8-107.8c45.3,0,84.1,28,100,67.6
					c-24.8,0.6-50.2,4.4-75.2,12.8C3133.4,702.5,3093.8,734.6,3064,766.9z"/>
			</g>
		</g>
	</g>
</g>
</svg>
