<?xml version="1.0" encoding="UTF-8" standalone="no"?>
<svg
   xmlns:dc="http://purl.org/dc/elements/1.1/"
   xmlns:cc="http://creativecommons.org/ns#"
   xmlns:rdf="http://www.w3.org/1999/02/22-rdf-syntax-ns#"
   xmlns:svg="http://www.w3.org/2000/svg"
   xmlns="http://www.w3.org/2000/svg"
   width="100%"
   height="100%"
   viewBox="0 0 633 720"
   version="1.1"
   xml:space="preserve"
   style="fill-rule:evenodd;clip-rule:evenodd;stroke-linejoin:round;stroke-miterlimit:2;"
   id="svg4"><metadata
   id="metadata10"><rdf:RDF><cc:Work
       rdf:about=""><dc:format>image/svg+xml</dc:format><dc:type
         rdf:resource="http://purl.org/dc/dcmitype/StillImage" /><dc:title></dc:title></cc:Work></rdf:RDF></metadata><defs
   id="defs8" />
    <path
   d="M197.016,432.081C161.382,399.65 139.003,352.913 139.003,300.98C139.003,203.17 218.418,123.75 316.235,123.75C414.052,123.75 493.467,203.17 493.467,300.98C493.467,353.175 470.859,400.124 434.908,432.577C437.938,454.06 438.304,475.212 436.2,496.052C428.548,571.863 388.068,643.79 322.996,712.629C321.426,714.29 319.242,715.233 316.956,715.238C314.67,715.243 312.483,714.309 310.906,712.654C234.165,632.151 195.197,551.137 194.543,469.938C194.442,457.332 195.263,444.713 197.016,432.081ZM430.845,410.363C458.009,381.911 474.697,343.378 474.697,300.98C474.697,213.53 403.693,142.52 316.235,142.52C228.778,142.52 157.774,213.53 157.774,300.98C157.774,343.092 174.237,381.395 201.072,409.789C214.905,348.398 250.767,286.763 309.502,225.018C312.672,221.685 317.952,221.553 321.285,224.723C324.619,227.894 324.75,233.174 321.58,236.507C247.224,314.675 210.589,392.323 211.213,469.804C211.819,545.14 247.628,619.997 316.915,694.706C375.625,630.878 412.538,564.488 419.615,494.378C426.667,424.513 403.947,351.178 344.5,273.239C251.624,386.923 241.641,505.024 316.593,627.648C368.484,539.513 390.111,447.152 332.487,343.845C330.246,339.827 331.689,334.746 335.706,332.505C339.723,330.264 344.804,331.707 347.045,335.724C410.599,449.662 383.863,551.071 323.835,647.899C322.334,650.322 319.698,651.809 316.847,651.842C313.997,651.874 311.328,650.448 309.77,648.061C220.793,511.654 231.041,380.521 338.386,254.546C340.003,252.648 342.386,251.574 344.879,251.618C347.372,251.663 349.715,252.821 351.263,254.776C393.87,308.559 419.606,360.353 430.845,410.363ZM505.412,475.817L467.022,437.426C463.005,433.41 456.484,433.41 452.467,437.426C448.45,441.443 448.45,447.965 452.467,451.981L490.857,490.372C494.874,494.388 501.396,494.388 505.412,490.372C509.429,486.355 509.429,479.833 505.412,475.817ZM165.039,437.426L126.648,475.816C122.632,479.833 122.632,486.355 126.648,490.371C130.665,494.388 137.187,494.388 141.203,490.371L179.594,451.981C183.61,447.964 183.61,441.443 179.594,437.426C175.577,433.409 169.055,433.409 165.039,437.426ZM112.784,290.695L27.419,290.695C21.738,290.695 17.125,295.308 17.125,300.989C17.125,306.67 21.738,311.283 27.419,311.283L112.784,311.283C118.465,311.283 123.078,306.67 123.078,300.989C123.078,295.308 118.465,290.695 112.784,290.695ZM604.636,290.695L519.271,290.695C513.59,290.695 508.977,295.308 508.977,300.989C508.977,306.67 513.59,311.283 519.271,311.283L604.636,311.283C610.317,311.283 614.93,306.67 614.93,300.989C614.93,295.308 610.317,290.695 604.636,290.695ZM490.858,111.605L452.468,149.995C448.452,154.012 448.452,160.534 452.468,164.55C456.485,168.567 463.007,168.567 467.023,164.55L505.413,126.16C509.43,122.144 509.43,115.622 505.413,111.605C501.397,107.589 494.875,107.589 490.858,111.605ZM179.592,149.995L141.202,111.605C137.186,107.588 130.664,107.588 126.647,111.605C122.631,115.621 122.631,122.143 126.647,126.16L165.037,164.55C169.054,168.567 175.576,168.567 179.592,164.55C183.609,160.534 183.609,154.012 179.592,149.995ZM326.321,97.741L326.321,12.375C326.321,6.694 321.709,2.082 316.027,2.082C310.346,2.082 305.734,6.694 305.734,12.375L305.734,97.741C305.734,103.422 310.346,108.035 316.027,108.035C321.709,108.035 326.321,103.422 326.321,97.741Z"
   style="fill:#ffbf87;fill-opacity:1"
   id="path2" />
</svg>
