<?xml version="1.0" encoding="UTF-8" standalone="no"?>
<!DOCTYPE svg PUBLIC "-//W3C//DTD SVG 1.1//EN" "http://www.w3.org/Graphics/SVG/1.1/DTD/svg11.dtd">
<svg width="100%" height="100%" viewBox="0 0 182 182" version="1.1" xmlns="http://www.w3.org/2000/svg" xmlns:xlink="http://www.w3.org/1999/xlink" xml:space="preserve" xmlns:serif="http://www.serif.com/" style="fill-rule:evenodd;clip-rule:evenodd;stroke-linejoin:round;stroke-miterlimit:2;">
    <g transform="matrix(1,0,0,1,-585.167,-431.598)">
        <g id="Cama-Quente" serif:id="Cama Quente" transform="matrix(1,0,0,1,192.053,-9.70749e-05)">
            <g transform="matrix(1.7113,-1.59103e-32,1.59103e-32,1.7113,251.417,-452.342)">
                <circle cx="135.953" cy="569.684" r="53.152" style="fill:rgb(22,22,22);"/>
            </g>
            <g transform="matrix(1,0,0,1,-192.053,9.70749e-05)">
                <path d="M620.847,500.868C623.921,484.187 640.197,469.9 640.197,469.9C637.641,476.449 637.113,484.9 637.703,492.115C640.659,482.247 646.716,474.534 647.024,470.535C647.632,473.913 649.813,482.614 652.118,490.173C656.547,480.662 664.302,473.031 666.431,471.043C666.594,470.757 666.779,470.582 666.985,470.535C666.985,470.535 666.787,470.71 666.431,471.043C665.219,473.166 665.18,481.422 665.954,488.971C669.08,482.026 673.387,476.616 673.645,473.576C674.33,477.021 677.009,486.58 679.611,493.891C681.579,487.339 684.287,481.563 687.766,477.852C687.223,484.912 690.626,495.69 693.627,503.096C696.343,497.386 701.218,492.104 702.618,483.21C705.743,489.57 707.406,495.226 708.55,499.86C712.739,493.481 717.607,488.71 719.226,487.197C719.389,486.912 719.574,486.737 719.78,486.69C719.78,486.69 719.582,486.865 719.226,487.197C718.006,489.334 717.975,497.677 718.763,505.262C722.606,502.166 727.156,499.427 730.015,493.898C731.534,500.415 732.759,509.689 732.878,516.057L732.887,516.058C732.887,516.23 732.887,516.402 732.885,516.572C732.899,518.065 732.848,519.38 732.72,520.44C730.479,549.724 705.978,572.819 676.127,572.819C644.799,572.819 616.392,547.244 619.366,516.058C619.891,510.552 620.063,504.332 620.847,500.868ZM666.339,507.433C664.305,509.013 661.402,510.053 658.782,510.053C656.399,510.053 654.142,509.274 652.399,507.984C650.49,509.257 648.112,510.053 645.93,510.053C645.726,510.053 645.522,510.046 645.319,510.034C652.614,512.101 661.105,513.657 670.146,513.657C672.808,513.657 675.472,513.674 678.112,513.706C676.943,512.283 676.308,510.545 676.515,508.675C675.218,509.125 673.85,509.38 672.552,509.38C670.243,509.38 668.056,508.65 666.339,507.433ZM639.764,507.939C639.712,508.04 639.656,508.139 639.597,508.238C639.996,508.375 640.4,508.511 640.809,508.647C640.445,508.432 640.096,508.196 639.764,507.939Z" style="fill:rgb(255,0,0);"/>
            </g>
            <g transform="matrix(0.776677,0,0,0.776677,-41.0582,115.248)">
                <path d="M670.456,498.347L721.143,523.419L721.143,529.328L719.768,529.702L719.768,536.066C719.768,537.016 718.996,537.787 718.047,537.787L715.752,537.787C714.802,537.787 714.031,537.016 714.031,536.066L714.031,531.263L684.773,539.221L684.773,545.163C684.773,546.113 684.001,546.884 683.051,546.884L680.757,546.884C679.807,546.884 679.036,546.113 679.036,545.163L679.036,538.58L638.222,518.391L638.222,521.642C638.222,522.592 637.45,523.363 636.5,523.363L634.206,523.363C633.256,523.363 632.485,522.592 632.485,521.642L632.485,515.554L631.11,514.874L631.11,514.75L631.11,514.75L631.11,495.926L670.456,485.231L670.456,498.347Z" style="fill:white;"/>
            </g>
        </g>
    </g>
</svg>
