<?xml version="1.0" encoding="UTF-8" standalone="no"?>
<!DOCTYPE svg PUBLIC "-//W3C//DTD SVG 1.1//EN" "http://www.w3.org/Graphics/SVG/1.1/DTD/svg11.dtd">
<svg width="100%" height="100%" viewBox="0 0 182 182" version="1.1" xmlns="http://www.w3.org/2000/svg" xmlns:xlink="http://www.w3.org/1999/xlink" xml:space="preserve" xmlns:serif="http://www.serif.com/" style="fill-rule:evenodd;clip-rule:evenodd;stroke-linejoin:round;stroke-miterlimit:2;">
    <g transform="matrix(1,0,0,1,-9.96324,-642.872)">
        <g id="Colher" transform="matrix(0.662885,0,0,0.662885,-44.9243,300.471)">
            <g transform="matrix(2.58159,0,0,2.58159,-130.957,-816.942)">
                <circle cx="135.953" cy="569.684" r="53.152" style="fill:rgb(22,22,22);"/>
            </g>
            <g id="Maça" transform="matrix(1.3052,0,0,1.3052,-610.838,82.8856)">
                <g transform="matrix(0.0895236,0,0,0.0634707,475.393,252.68)">
                    <path d="M2187.45,2458.22C1924.98,2382.48 1924.89,2557.79 1925.28,2571.44C1956.78,2550.43 2079.01,2472.87 2187.43,2458.25C2187.43,2458.24 2187.45,2458.22 2187.45,2458.22Z" style="fill:white;fill-rule:nonzero;"/>
                </g>
                <g transform="matrix(0.0895236,0,0,0.0634707,475.393,252.68)">
                    <path d="M1925.28,2571.44C1925.3,2571.99 1925.31,2572.31 1925.31,2572.31C2049.94,2726.72 2186.68,2459.71 2187.43,2458.25C2079.01,2472.87 1956.78,2550.43 1925.28,2571.44Z" style="fill:white;fill-rule:nonzero;"/>
                </g>
                <g transform="matrix(1,0,0,1,649.842,413.794)">
                    <path d="M0,21.827C0,21.827 -2.349,5.858 -6.616,1.285L-1.434,-0.544C-1.434,-0.544 3.457,10.227 2.232,22.371" style="fill:white;fill-rule:nonzero;"/>
                </g>
                <g transform="matrix(1,0,0,1,687.14,492.454)">
                    <path d="M-4.793,-52.315C-14.58,-62.102 -31.268,-59.155 -36.286,-57.813C-41.301,-59.155 -61.535,-61.045 -68.1,-44.635C-75.418,-26.344 -60.482,0.605 -52.348,5.404C-45.047,9.711 -34.141,8.026 -31.536,5.874C-28.931,8.026 -22.251,7.141 -15.92,3.849C3.875,-6.445 7.277,-40.244 -4.793,-52.315Z" style="fill:white;fill-rule:nonzero;"/>
                </g>
            </g>
            <g id="scisors" transform="matrix(0.0801177,-0.046256,0.046256,0.0801177,190.665,602.684)">
                <g transform="matrix(1,0,0,1,-250.685,-420.591)">
                    <clipPath id="_clip1">
                        <rect x="0" y="0" width="501.369" height="841.181"/>
                    </clipPath>
                    <g clip-path="url(#_clip1)">
                        <g id="layer1">
                            <path id="path844" d="M120.005,841.182L134.091,804.199L162.372,728.783L253.434,485.856L277.511,546.769L327.547,674.396L369.606,781.719L391.213,837.556C399.721,833.589 406.857,822.9 411.655,815.076C426.543,790.783 430.588,761.132 427.591,733.134C423.563,695.51 407.247,660.941 394.15,625.811C372.847,568.668 351.112,511.676 329.436,454.674C321.17,432.938 313.046,411.147 304.78,389.41C302.566,383.586 294.698,370.621 296.607,364.548C301.605,348.649 311.092,333.505 316.746,317.62C326.155,291.181 331.323,263.28 335.922,235.677C337.937,223.588 339.353,211.257 342.636,199.42C344.216,193.725 346.291,187.415 351.333,183.839C355.869,180.621 362.01,182.525 366.558,184.778C376.835,189.871 385.271,195.204 397.014,196.396C409.441,197.659 422.516,197.845 434.722,194.722C465.619,186.815 487.038,160.598 496.6,131.255C510.86,87.497 492.381,32.174 451.401,9.655C436.801,1.632 421.347,-0.076 404.991,0.003C394.556,0.053 384.149,2.972 374.535,6.818C361.403,12.071 350.338,20.457 340.455,30.459C317.369,53.822 312.896,84.663 312.896,116.027C312.896,156.229 319.355,198.024 306.609,237.128C299.95,257.56 288.307,275.531 271.563,289.15C267.51,292.445 259.672,300.199 254.159,300.218C248.499,300.237 240.274,292.638 236.03,289.329C219.066,276.097 205.796,258.855 198.36,238.578C174.284,172.921 211.621,90.565 159.098,34.084C122.603,-5.162 54.013,-6.985 19.579,36.985C-1.471,63.864 -4.539,104.614 5.571,136.331C18.628,177.284 56.774,205.963 100.426,199.22C113.022,197.275 124.075,191.488 135.959,187.342C141.93,185.259 148.49,183.542 154.077,187.562C158.726,190.91 160.332,197.006 161.59,202.32C164.251,213.567 165.759,225.073 168.01,236.402C173.531,264.178 180.655,291.722 190.384,318.345C195.602,332.625 204.114,347.194 207.787,361.854C209.482,368.618 202.655,380.041 200.497,386.509C193.368,407.877 185.384,428.955 178.259,450.323C159.003,508.082 138.468,565.549 118.053,622.91C106.002,656.77 90.118,691.771 84.294,727.332C77.959,766.012 85.368,816.78 120.005,841.182M470.773,90.646C473.683,114.972 462.786,139.839 442.699,153.901C414.094,173.925 369.013,170.069 350.208,138.507C345.148,130.016 342.549,119.966 341.384,110.226C334.966,56.561 398.777,7.626 445.6,42.174C451.616,46.614 456.673,52.321 460.5,58.74C466.355,68.562 469.423,79.355 470.773,90.646M159.682,102.974C160.587,110.624 159.161,118.928 156.747,126.179C153.548,135.782 149.077,145.741 141.695,152.886C121.442,172.486 87.594,173.162 63.443,161.008C41.833,150.132 33.002,129.485 30.293,106.6C24.958,61.526 64.664,23.12 109.128,38.084C137.492,47.63 156.242,73.916 159.682,102.974Z" style="fill:white;fill-rule:nonzero;"/>
                        </g>
                    </g>
                </g>
            </g>
        </g>
    </g>
</svg>
