<?xml version="1.0" encoding="UTF-8" standalone="no"?>
<!DOCTYPE svg PUBLIC "-//W3C//DTD SVG 1.1//EN" "http://www.w3.org/Graphics/SVG/1.1/DTD/svg11.dtd">
<svg width="100%" height="100%" viewBox="0 0 182 182" version="1.1" xmlns="http://www.w3.org/2000/svg" xmlns:xlink="http://www.w3.org/1999/xlink" xml:space="preserve" xmlns:serif="http://www.serif.com/" style="fill-rule:evenodd;clip-rule:evenodd;stroke-linejoin:round;stroke-miterlimit:2;">
    <g transform="matrix(1,0,0,1,-201.213,-642.872)">
        <g id="Cuidar" transform="matrix(0.662885,0,0,0.662885,146.326,300.471)">
            <g transform="matrix(2.58159,0,0,2.58159,-130.957,-816.942)">
                <circle cx="135.953" cy="569.684" r="53.152" style="fill:rgb(22,22,22);"/>
            </g>
            <g transform="matrix(0.932018,0,0,0.932018,-1014.72,328.786)">
                <path d="M1297.11,316.135C1297.09,315.426 1297.08,314.711 1297.08,313.992C1297.08,281.769 1318.65,256.265 1344.21,256.265C1369.77,256.265 1391.35,281.769 1391.35,313.992C1391.35,314.711 1391.33,315.426 1391.31,316.135C1398.95,322.243 1403.85,331.643 1403.85,342.177L1403.85,388.313C1403.85,406.704 1388.92,421.635 1370.53,421.635L1317.89,421.635C1299.5,421.635 1284.57,406.704 1284.57,388.313L1284.57,342.177C1284.57,341.669 1284.58,341.164 1284.6,340.661C1280.63,338.192 1275.57,336.155 1269.75,336.25C1263.99,336.344 1257.67,338.77 1250.84,344.525C1250.8,344.56 1250.77,344.595 1250.73,344.631C1250.7,350.202 1250.07,359.604 1248.33,361.346C1245.88,363.789 1241.92,363.789 1239.48,361.346L1217.47,339.34C1215.03,336.897 1215.03,332.931 1217.47,330.488C1218.93,329.031 1226.88,328.606 1233.21,327.692C1246.17,316.025 1258.56,312.152 1269.36,311.976C1278.95,311.82 1287.44,314.803 1294.33,318.619C1295.21,317.741 1296.14,316.912 1297.11,316.135ZM1378.24,309.753C1376.64,287.312 1362.4,269.215 1344.21,269.215C1326.02,269.215 1311.78,287.312 1310.18,309.753C1312.65,309.166 1315.24,308.855 1317.89,308.855L1370.53,308.855C1373.19,308.855 1375.77,309.166 1378.24,309.753Z" style="fill:white;"/>
            </g>
        </g>
    </g>
</svg>
