<?xml version="1.0" encoding="UTF-8" standalone="no"?>
<!DOCTYPE svg PUBLIC "-//W3C//DTD SVG 1.1//EN" "http://www.w3.org/Graphics/SVG/1.1/DTD/svg11.dtd">
<svg width="100%" height="100%" viewBox="0 0 182 182" version="1.1" xmlns="http://www.w3.org/2000/svg" xmlns:xlink="http://www.w3.org/1999/xlink" xml:space="preserve" xmlns:serif="http://www.serif.com/" style="fill-rule:evenodd;clip-rule:evenodd;stroke-linejoin:round;stroke-miterlimit:2;">
    <g transform="matrix(1,0,0,1,-9.96324,-431.598)">
        <g id="Na-horta" serif:id="Na horta" transform="matrix(0.662885,0,0,0.662885,-44.9243,89.1967)">
            <g transform="matrix(2.58159,0,0,2.58159,-130.957,-816.942)">
                <circle cx="135.953" cy="569.684" r="53.152" style="fill:rgb(22,22,22);"/>
            </g>
            <g transform="matrix(1.18808,0,0,1.18808,-44.7715,-123.089)">
                <g transform="matrix(0.703924,0,0,0.703924,47.0909,189.248)">
                    <path d="M182.394,636.42C157.311,622.754 132.228,624.433 107.145,636.42L166.632,694.905C191.714,680.941 216.797,680.886 241.88,694.905L182.394,636.42Z" style="fill:white;"/>
                </g>
                <g transform="matrix(0.703924,0,0,0.703924,100.06,189.248)">
                    <path d="M182.394,636.42C157.311,622.754 132.228,624.433 107.145,636.42L166.632,694.905C191.714,680.941 216.797,680.886 241.88,694.905L182.394,636.42Z" style="fill:white;"/>
                </g>
                <g transform="matrix(0.703924,0,0,0.703924,152.964,189.248)">
                    <path d="M182.394,636.42C157.311,622.754 132.228,624.433 107.145,636.42L166.632,694.905C191.714,680.941 216.797,680.886 241.88,694.905L182.394,636.42Z" style="fill:white;"/>
                </g>
            </g>
        </g>
    </g>
</svg>
