<?xml version="1.0" encoding="UTF-8" standalone="no"?>
<!DOCTYPE svg PUBLIC "-//W3C//DTD SVG 1.1//EN" "http://www.w3.org/Graphics/SVG/1.1/DTD/svg11.dtd">
<svg width="100%" height="100%" viewBox="0 0 182 182" version="1.1" xmlns="http://www.w3.org/2000/svg" xmlns:xlink="http://www.w3.org/1999/xlink" xml:space="preserve" xmlns:serif="http://www.serif.com/" style="fill-rule:evenodd;clip-rule:evenodd;stroke-linecap:round;stroke-linejoin:round;stroke-miterlimit:1.5;">
    <g transform="matrix(1,0,0,1,-393.114,-431.598)">
        <g id="Sitios-abrigados" serif:id="Sitios abrigados">
            <g transform="matrix(1.7113,-1.59103e-32,1.59103e-32,1.7113,251.417,-452.342)">
                <circle cx="135.953" cy="569.684" r="53.152" style="fill:rgb(22,22,22);"/>
            </g>
            <g transform="matrix(1,0,0,1,239.814,231.316)">
                <g transform="matrix(1.05109,0,0,0.922167,-11.0735,26.2658)">
                    <path d="M216.754,285.376C210.552,285.746 207.327,282.889 207.578,276.261L207.578,337.465L216.754,337.465L216.754,285.376Z" style="fill:none;stroke:white;stroke-width:3.44px;"/>
                </g>
                <path d="M243.834,234.044C243.834,234.044 240.65,241.087 240.65,244.105C240.65,245.862 242.077,247.289 243.834,247.289C245.591,247.289 247.018,245.862 247.018,244.105C247.018,241.087 243.834,234.044 243.834,234.044Z" style="fill:none;stroke:white;stroke-width:0.96px;"/>
                <g transform="matrix(1,0,0,1,19.2359,-2.68977)">
                    <path d="M243.834,234.044C243.834,234.044 240.65,241.087 240.65,244.105C240.65,245.862 242.077,247.289 243.834,247.289C245.591,247.289 247.018,245.862 247.018,244.105C247.018,241.087 243.834,234.044 243.834,234.044Z" style="fill:none;stroke:white;stroke-width:0.96px;"/>
                </g>
                <g transform="matrix(1,0,0,1,33.7444,-2.68977)">
                    <path d="M243.834,234.044C243.834,234.044 240.65,241.087 240.65,244.105C240.65,245.862 242.077,247.289 243.834,247.289C245.591,247.289 247.018,245.862 247.018,244.105C247.018,241.087 243.834,234.044 243.834,234.044Z" style="fill:none;stroke:white;stroke-width:0.96px;"/>
                </g>
                <g transform="matrix(1,0,0,1,-15.8126,-0.652065)">
                    <path d="M243.834,234.044C243.834,234.044 240.65,241.087 240.65,244.105C240.65,245.862 242.077,247.289 243.834,247.289C245.591,247.289 247.018,245.862 247.018,244.105C247.018,241.087 243.834,234.044 243.834,234.044Z" style="fill:none;stroke:white;stroke-width:0.96px;"/>
                </g>
                <g transform="matrix(1,0,0,1,-30.7286,-0.652065)">
                    <path d="M243.834,234.044C243.834,234.044 240.65,241.087 240.65,244.105C240.65,245.862 242.077,247.289 243.834,247.289C245.591,247.289 247.018,245.862 247.018,244.105C247.018,241.087 243.834,234.044 243.834,234.044Z" style="fill:none;stroke:white;stroke-width:0.96px;"/>
                </g>
                <g transform="matrix(0.787692,0,0,0.787692,28.9216,63.5864)">
                    <path d="M243.834,234.044C243.834,234.044 240.65,241.087 240.65,244.105C240.65,245.862 242.077,247.289 243.834,247.289C245.591,247.289 247.018,245.862 247.018,244.105C247.018,241.087 243.834,234.044 243.834,234.044Z" style="fill:none;stroke:white;stroke-width:1.22px;"/>
                </g>
                <g transform="matrix(0.787692,0,0,0.787692,44.2451,61.7118)">
                    <path d="M243.834,234.044C243.834,234.044 240.65,241.087 240.65,244.105C240.65,245.862 242.077,247.289 243.834,247.289C245.591,247.289 247.018,245.862 247.018,244.105C247.018,241.087 243.834,234.044 243.834,234.044Z" style="fill:none;stroke:white;stroke-width:1.22px;"/>
                </g>
                <g transform="matrix(0.787692,0,0,0.787692,61.9324,61.8748)">
                    <path d="M243.834,234.044C243.834,234.044 240.65,241.087 240.65,244.105C240.65,245.862 242.077,247.289 243.834,247.289C245.591,247.289 247.018,245.862 247.018,244.105C247.018,241.087 243.834,234.044 243.834,234.044Z" style="fill:none;stroke:white;stroke-width:1.22px;"/>
                </g>
                <g transform="matrix(0.787692,0,0,0.787692,77.0929,63.5864)">
                    <path d="M243.834,234.044C243.834,234.044 240.65,241.087 240.65,244.105C240.65,245.862 242.077,247.289 243.834,247.289C245.591,247.289 247.018,245.862 247.018,244.105C247.018,241.087 243.834,234.044 243.834,234.044Z" style="fill:none;stroke:white;stroke-width:1.22px;"/>
                </g>
                <g transform="matrix(-1.05109,0,0,0.922167,499.592,26.2658)">
                    <path d="M216.754,285.376C210.552,285.746 207.327,282.889 207.578,276.261L207.578,337.465L216.754,337.465L216.754,285.376Z" style="fill:none;stroke:white;stroke-width:3.44px;"/>
                </g>
                <g transform="matrix(0.894346,0,0,0.894346,21.9313,27.4108)">
                    <path d="M207.578,284.268L207.578,280.856C207.578,252.078 289.623,252.526 289.623,280.856L289.623,284.268C289.623,289.073 285.722,292.974 280.917,292.974C278.446,292.974 276.214,291.942 274.629,290.286C273.044,291.942 270.812,292.974 268.341,292.974C265.518,292.974 263.007,291.627 261.416,289.542C259.825,291.627 257.314,292.974 254.491,292.974C251.893,292.974 249.56,291.833 247.964,290.026C246.368,291.833 244.034,292.974 241.437,292.974C239.205,292.974 237.168,292.132 235.626,290.748C234.084,292.132 232.047,292.974 229.815,292.974C227.085,292.974 224.646,291.714 223.05,289.744C221.453,291.714 219.014,292.974 216.284,292.974C211.479,292.974 207.578,289.073 207.578,284.268Z" style="fill:none;stroke:white;stroke-width:5.03px;"/>
                </g>
            </g>
        </g>
    </g>
</svg>
