<?xml version="1.0" encoding="UTF-8" standalone="no"?>
<!DOCTYPE svg PUBLIC "-//W3C//DTD SVG 1.1//EN" "http://www.w3.org/Graphics/SVG/1.1/DTD/svg11.dtd">
<svg width="100%" height="100%" viewBox="0 0 182 182" version="1.1" xmlns="http://www.w3.org/2000/svg" xmlns:xlink="http://www.w3.org/1999/xlink" xml:space="preserve" xmlns:serif="http://www.serif.com/" style="fill-rule:evenodd;clip-rule:evenodd;stroke-linecap:round;stroke-linejoin:round;stroke-miterlimit:1.5;">
    <g transform="matrix(1,0,0,1,-202.078,-848.655)">
        <g id="Transplantar" transform="matrix(0.662885,0,0,0.662885,146.326,506.56)">
            <g transform="matrix(2.58159,0,0,2.58159,-129.652,-817.405)">
                <circle cx="135.953" cy="569.684" r="53.152" style="fill:rgb(22,22,22);"/>
            </g>
            <g transform="matrix(1.20659,0,0,1.20659,-148.704,-478.675)">
                <path d="M262.407,897.239L262.407,903.475C253.387,903.475 245.926,910.203 244.772,918.91L238.496,918.91C239.681,906.754 249.941,897.239 262.407,897.239ZM274.219,900.211L262.407,907.464L262.407,892.958L274.219,900.211Z" style="fill:white;"/>
            </g>
            <g transform="matrix(7.38824e-17,1.20659,-1.20659,7.38824e-17,1375.25,310.993)">
                <path d="M262.407,897.239L262.407,903.475C253.387,903.475 245.926,910.203 244.772,918.91L238.496,918.91C239.681,906.754 249.941,897.239 262.407,897.239ZM274.219,900.211L262.407,907.464L262.407,892.958L274.219,900.211Z" style="fill:white;"/>
            </g>
            <g transform="matrix(1,0,0,1,-5.83346,18.5303)">
                <g transform="matrix(1.20174,0,0,1.50856,-146.268,-754.363)">
                    <path d="M281.841,927.749L222.171,927.749L228.239,961.011C230.137,966.511 233.563,970.478 240.122,970.478L263.889,970.478C270.448,970.478 274.306,967.198 275.773,961.011L281.841,927.749Z" style="fill:rgb(22,22,22);stroke:white;stroke-width:2.21px;"/>
                </g>
                <g transform="matrix(1.50856,0,0,1.50856,-223.589,-754.363)">
                    <ellipse cx="252.006" cy="927.749" rx="23.767" ry="7.048" style="fill:rgb(22,22,22);stroke:white;stroke-width:2px;"/>
                </g>
            </g>
            <g transform="matrix(1,0,0,1,135.328,18.5303)">
                <g transform="matrix(1.20174,0,0,1.50856,-146.268,-754.363)">
                    <path d="M281.841,927.749L222.171,927.749L228.239,961.011C230.137,966.511 233.563,970.478 240.122,970.478L263.889,970.478C270.448,970.478 274.306,967.198 275.773,961.011L281.841,927.749Z" style="fill:rgb(22,22,22);stroke:white;stroke-width:2.21px;"/>
                </g>
                <g transform="matrix(1.50856,0,0,1.50856,-223.589,-754.363)">
                    <ellipse cx="252.006" cy="927.749" rx="23.767" ry="7.048" style="fill:rgb(22,22,22);stroke:white;stroke-width:2px;"/>
                </g>
            </g>
            <g transform="matrix(0.707007,0,0,0.707007,64.2593,186.329)">
                <g transform="matrix(1.50856,0,0,1.50856,-511.282,-477.343)">
                    <path d="M476.94,729.88C476.94,729.88 469.81,723.583 481.284,698.341" style="fill:none;stroke:white;stroke-width:4.24px;"/>
                </g>
                <g transform="matrix(1.50856,0,0,1.50856,-220.74,-764.175)">
                    <path d="M282.907,917.407L275.44,917.414L269.152,918.22L269.152,921.845L272.682,929.096C272.682,929.096 274.572,933.93 275.44,935.138C276.308,936.347 276.845,941.718 276.845,941.718C276.845,941.718 280.752,939.063 282.155,939.921C283.558,940.778 283.525,940.674 285.422,939.921C287.318,939.167 293.092,937.555 294.435,937.555C295.778,937.555 299.537,938.495 299.537,938.495L300.477,932.856C300.477,932.856 302.89,930.707 303.563,929.096C304.237,927.485 303.563,922.516 303.563,922.516L298.329,917.682L292.172,915.4L289.123,917.548L282.907,917.407Z" style="fill:rgb(22,22,22);stroke:white;stroke-width:2.83px;"/>
                </g>
                <g transform="matrix(-0.0125371,1.12455,-0.891411,-0.00993789,873.64,12.4291)">
                    <path d="M507.325,682.393C507.325,682.393 516.59,693.344 516.59,706.831C516.59,720.319 507.325,731.27 507.325,731.27C507.325,731.27 498.463,720.319 498.463,706.831C498.463,693.344 507.325,682.393 507.325,682.393Z" style="fill:none;stroke:white;stroke-width:4.21px;"/>
                </g>
                <g transform="matrix(-0.464879,1.02404,-0.811738,-0.368501,1004.38,306.741)">
                    <path d="M507.325,682.393C507.325,682.393 516.59,693.344 516.59,706.831C516.59,720.319 507.325,731.27 507.325,731.27C507.325,731.27 498.463,720.319 498.463,706.831C498.463,693.344 507.325,682.393 507.325,682.393Z" style="fill:none;stroke:white;stroke-width:4.21px;"/>
                </g>
            </g>
        </g>
    </g>
</svg>
