<?xml version="1.0" encoding="UTF-8" standalone="no"?>
<!DOCTYPE svg PUBLIC "-//W3C//DTD SVG 1.1//EN" "http://www.w3.org/Graphics/SVG/1.1/DTD/svg11.dtd">
<svg width="100%" height="100%" viewBox="0 0 182 281" version="1.1" xmlns="http://www.w3.org/2000/svg" xmlns:xlink="http://www.w3.org/1999/xlink" xml:space="preserve" xmlns:serif="http://www.serif.com/" style="fill-rule:evenodd;clip-rule:evenodd;stroke-linejoin:round;stroke-miterlimit:2;">
    <g transform="matrix(1,0,0,1,-1454.74,-49.3587)">
        <g transform="matrix(1,0,0,1,506.558,-7.76377)">
            <text x="988.641px" y="287.798px" style="font-family:'Lato-Regular', 'Lato', sans-serif;font-size:42px;fill:white;">Sitios</text>
            <text x="949.014px" y="329.798px" style="font-family:'Lato-Regular', 'Lato', sans-serif;font-size:42px;fill:white;">abrigados</text>
        </g>
        <g transform="matrix(1,0,0,1,68.642,-382.239)">
            <g id="Sitios-abrigados" serif:id="Sitios abrigados">
                <path d="M1477.06,431.598C1527.26,431.598 1568.02,472.355 1568.02,522.557C1568.02,572.759 1527.26,613.516 1477.06,613.516C1426.86,613.516 1386.1,572.759 1386.1,522.557C1386.1,472.355 1426.86,431.598 1477.06,431.598ZM1438.68,511.169L1438.68,509.909C1438.68,504.187 1441.86,499.578 1447.08,496.17C1454.36,491.421 1465.71,489.025 1477.07,489.056C1488.43,489.087 1499.78,491.543 1507.06,496.285C1512.28,499.692 1515.46,504.272 1515.46,509.909L1515.46,511.184C1515.72,511.469 1515.89,511.847 1515.91,512.267C1515.93,512.744 1515.93,513.201 1515.91,513.64L1515.91,568.781C1515.91,569.72 1515.15,570.481 1514.21,570.481L1504.57,570.481C1503.63,570.481 1502.87,569.72 1502.87,568.781L1502.87,521.926C1501.96,521.611 1501.11,521.16 1500.35,520.598C1498.77,521.76 1496.83,522.446 1494.72,522.446C1492.36,522.446 1490.19,521.578 1488.53,520.143C1486.87,521.578 1484.7,522.446 1482.34,522.446C1480.14,522.446 1478.11,521.695 1476.5,520.436C1474.89,521.695 1472.86,522.446 1470.66,522.446C1468.74,522.446 1466.96,521.876 1465.46,520.895C1463.97,521.876 1462.19,522.446 1460.27,522.446C1457.97,522.446 1455.86,521.627 1454.22,520.263C1453.35,520.985 1452.35,521.555 1451.26,521.93L1451.26,568.781C1451.26,569.72 1450.5,570.481 1449.56,570.481L1439.91,570.481C1438.97,570.481 1438.21,569.72 1438.21,568.781L1438.21,513.64C1438.19,513.201 1438.19,512.744 1438.21,512.267C1438.23,511.84 1438.41,511.456 1438.68,511.169ZM1512.51,520.66C1510.96,521.756 1508.88,522.376 1506.27,522.463L1506.27,567.081L1512.51,567.081L1512.51,520.66ZM1441.61,520.66L1441.61,567.081L1447.86,567.081L1447.86,522.463C1445.25,522.376 1443.16,521.756 1441.61,520.66ZM1442.08,512.96L1442.08,509.909C1442.08,505.335 1444.77,501.741 1448.94,499.017C1455.76,494.568 1466.42,492.427 1477.06,492.456C1487.72,492.485 1498.38,494.686 1505.2,499.133C1509.37,501.852 1512.06,505.411 1512.06,509.909C1512.06,509.909 1512.06,512.96 1512.06,512.96C1512.06,516.319 1509.33,519.046 1505.97,519.046C1504.24,519.046 1502.68,518.325 1501.58,517.167C1501.25,516.832 1500.81,516.643 1500.35,516.643C1499.88,516.643 1499.44,516.832 1499.12,517.167C1498.01,518.325 1496.45,519.046 1494.72,519.046C1492.75,519.046 1490.99,518.104 1489.88,516.646C1489.56,516.224 1489.06,515.977 1488.53,515.977C1488,515.977 1487.5,516.224 1487.18,516.646C1486.07,518.104 1484.31,519.046 1482.34,519.046C1480.52,519.046 1478.89,518.249 1477.77,516.985C1477.45,516.62 1476.99,516.41 1476.5,516.41C1476.01,516.41 1475.55,516.62 1475.23,516.985C1474.11,518.249 1472.48,519.046 1470.66,519.046C1469.1,519.046 1467.68,518.458 1466.6,517.491C1465.95,516.911 1464.98,516.911 1464.33,517.491C1463.25,518.458 1461.83,519.046 1460.27,519.046C1458.36,519.046 1456.65,518.165 1455.54,516.788C1455.21,516.389 1454.73,516.158 1454.22,516.158C1453.7,516.158 1453.22,516.389 1452.9,516.788C1451.78,518.165 1450.08,519.046 1448.17,519.046C1444.81,519.046 1442.08,516.319 1442.08,512.96ZM1454.23,479.059C1454.15,478.888 1453.98,478.777 1453.79,478.777C1453.6,478.777 1453.43,478.888 1453.35,479.059C1453.35,479.059 1450.8,484.747 1450.8,487.182C1450.8,488.83 1452.14,490.169 1453.79,490.169C1455.44,490.169 1456.78,488.83 1456.78,487.182C1456.78,484.747 1454.23,479.059 1454.23,479.059ZM1502.4,479.059C1502.32,478.888 1502.15,478.777 1501.96,478.777C1501.77,478.777 1501.6,478.888 1501.53,479.059C1501.53,479.059 1498.97,484.747 1498.97,487.182C1498.97,488.83 1500.31,490.169 1501.96,490.169C1503.61,490.169 1504.95,488.83 1504.95,487.182C1504.95,484.747 1502.4,479.059 1502.4,479.059ZM1453.79,480.457C1453.08,482.133 1451.76,485.484 1451.76,487.182C1451.76,488.301 1452.67,489.21 1453.79,489.21C1454.91,489.21 1455.82,488.301 1455.82,487.182C1455.82,485.484 1454.5,482.133 1453.79,480.457ZM1501.96,480.457C1501.25,482.133 1499.93,485.484 1499.93,487.182C1499.93,488.301 1500.84,489.21 1501.96,489.21C1503.08,489.21 1503.99,488.301 1503.99,487.182C1503.99,485.484 1502.67,482.133 1501.96,480.457ZM1487.24,477.347C1487.16,477.176 1486.99,477.066 1486.8,477.066C1486.61,477.066 1486.44,477.176 1486.36,477.347C1486.36,477.347 1483.81,483.035 1483.81,485.47C1483.81,487.119 1485.15,488.457 1486.8,488.457C1488.45,488.457 1489.79,487.119 1489.79,485.47C1489.79,483.035 1487.24,477.347 1487.24,477.347ZM1469.55,477.184C1469.47,477.013 1469.3,476.903 1469.11,476.903C1468.92,476.903 1468.75,477.013 1468.68,477.184C1468.68,477.184 1466.13,482.872 1466.13,485.307C1466.13,486.956 1467.46,488.294 1469.11,488.294C1470.76,488.294 1472.1,486.956 1472.1,485.307C1472.1,482.872 1469.55,477.184 1469.55,477.184ZM1486.8,478.745C1486.09,480.421 1484.77,483.772 1484.77,485.47C1484.77,486.59 1485.68,487.499 1486.8,487.499C1487.92,487.499 1488.83,486.59 1488.83,485.47C1488.83,483.772 1487.51,480.421 1486.8,478.745ZM1469.11,478.582C1468.4,480.258 1467.09,483.609 1467.09,485.307C1467.09,486.427 1467.99,487.336 1469.11,487.336C1470.23,487.336 1471.14,486.427 1471.14,485.307C1471.14,483.609 1469.82,480.258 1469.11,478.582ZM1477.07,465.162C1477,464.99 1476.82,464.88 1476.64,464.88C1476.45,464.88 1476.28,464.99 1476.2,465.162C1476.2,465.162 1472.97,472.345 1472.97,475.421C1472.97,477.442 1474.61,479.084 1476.64,479.084C1478.66,479.084 1480.3,477.442 1480.3,475.421C1480.3,472.345 1477.07,465.162 1477.07,465.162ZM1461.26,464.51C1461.18,464.338 1461.01,464.228 1460.82,464.228C1460.63,464.228 1460.46,464.338 1460.39,464.51C1460.39,464.51 1457.16,471.693 1457.16,474.769C1457.16,476.79 1458.8,478.432 1460.82,478.432C1462.85,478.432 1464.49,476.79 1464.49,474.769C1464.49,471.693 1461.26,464.51 1461.26,464.51ZM1446.34,464.51C1446.27,464.338 1446.1,464.228 1445.91,464.228C1445.72,464.228 1445.55,464.338 1445.47,464.51C1445.47,464.51 1442.24,471.693 1442.24,474.769C1442.24,476.79 1443.89,478.432 1445.91,478.432C1447.93,478.432 1449.57,476.79 1449.57,474.769C1449.57,471.693 1446.34,464.51 1446.34,464.51ZM1476.64,466.555C1475.77,468.576 1473.93,473.154 1473.93,475.421C1473.93,476.913 1475.14,478.125 1476.64,478.125C1478.13,478.125 1479.34,476.913 1479.34,475.421C1479.34,473.154 1477.5,468.576 1476.64,466.555ZM1460.82,465.903C1459.96,467.924 1458.12,472.502 1458.12,474.769C1458.12,476.261 1459.33,477.473 1460.82,477.473C1462.32,477.473 1463.53,476.261 1463.53,474.769C1463.53,472.502 1461.69,467.924 1460.82,465.903ZM1445.91,465.903C1445.04,467.924 1443.2,472.502 1443.2,474.769C1443.2,476.261 1444.41,477.473 1445.91,477.473C1447.4,477.473 1448.61,476.261 1448.61,474.769C1448.61,472.502 1446.77,467.924 1445.91,465.903ZM1496.31,462.472C1496.23,462.301 1496.06,462.19 1495.87,462.19C1495.68,462.19 1495.51,462.301 1495.43,462.472C1495.43,462.472 1492.21,469.655 1492.21,472.731C1492.21,474.753 1493.85,476.394 1495.87,476.394C1497.89,476.394 1499.54,474.753 1499.54,472.731C1499.54,469.655 1496.31,462.472 1496.31,462.472ZM1510.82,462.472C1510.74,462.301 1510.57,462.19 1510.38,462.19C1510.19,462.19 1510.02,462.301 1509.94,462.472C1509.94,462.472 1506.72,469.655 1506.72,472.731C1506.72,474.753 1508.36,476.394 1510.38,476.394C1512.4,476.394 1514.04,474.753 1514.04,472.731C1514.04,469.655 1510.82,462.472 1510.82,462.472ZM1495.87,463.865C1495.01,465.887 1493.17,470.464 1493.17,472.731C1493.17,474.224 1494.38,475.436 1495.87,475.436C1497.37,475.436 1498.58,474.224 1498.58,472.731C1498.58,470.464 1496.74,465.887 1495.87,463.865ZM1510.38,463.865C1509.52,465.887 1507.68,470.464 1507.68,472.731C1507.68,474.224 1508.89,475.436 1510.38,475.436C1511.87,475.436 1513.09,474.224 1513.09,472.731C1513.09,470.464 1511.24,465.887 1510.38,463.865Z" style="fill:white;"/>
            </g>
        </g>
    </g>
</svg>
