<?xml version="1.0" encoding="UTF-8" standalone="no"?>
<!DOCTYPE svg PUBLIC "-//W3C//DTD SVG 1.1//EN" "http://www.w3.org/Graphics/SVG/1.1/DTD/svg11.dtd">
<svg width="100%" height="100%" viewBox="0 0 182 232" version="1.1" xmlns="http://www.w3.org/2000/svg" xmlns:xlink="http://www.w3.org/1999/xlink" xml:space="preserve" xmlns:serif="http://www.serif.com/" style="fill-rule:evenodd;clip-rule:evenodd;stroke-linejoin:round;stroke-miterlimit:2;">
    <g transform="matrix(1,0,0,1,-1705.3,-49.3587)">
        <g transform="matrix(1,0,0,1,114.331,-382.239)">
            <g id="Cavare-Sachar" serif:id="Cavare Sachar">
                <path d="M1681.93,431.598C1732.13,431.598 1772.89,472.355 1772.89,522.557C1772.89,572.759 1732.13,613.516 1681.93,613.516C1631.73,613.516 1590.97,572.759 1590.97,522.557C1590.97,472.355 1631.73,431.598 1681.93,431.598ZM1608.72,526.148C1608.58,525.378 1608.7,524.489 1609.24,523.507L1616.49,508.82C1616.61,508.561 1617.67,506.285 1619.26,504.441C1620.52,502.983 1622.11,501.843 1623.79,501.843C1623.79,501.843 1737.2,501.843 1737.2,501.843C1738.88,501.843 1740.47,502.983 1741.73,504.441C1743.25,506.206 1744.29,508.368 1744.48,508.776L1754.06,523.928C1754.72,524.868 1754.93,525.705 1754.87,526.412L1755.2,544.743L1608.87,544.743L1608.72,526.148ZM1742.76,509.632C1742.78,509.674 1742.8,509.714 1742.82,509.753L1752.44,524.972C1752.45,524.985 1752.46,524.998 1752.47,525.01C1752.83,525.53 1753.02,525.953 1752.94,526.32C1752.85,526.708 1752.47,526.94 1751.99,527.136C1751.26,527.434 1750.28,527.572 1749.18,527.572C1749.18,527.572 1614.68,527.572 1614.68,527.572C1613.6,527.572 1612.61,527.396 1611.84,527.046C1611.25,526.776 1610.8,526.416 1610.65,525.913C1610.52,525.484 1610.62,524.986 1610.94,524.413L1610.96,524.373L1618.22,509.664C1618.22,509.654 1618.23,509.643 1618.23,509.632C1618.23,509.632 1619.21,507.447 1620.72,505.699C1621.59,504.686 1622.62,503.769 1623.79,503.769L1737.2,503.769C1738.37,503.769 1739.4,504.686 1740.27,505.699C1741.78,507.447 1742.76,509.632 1742.76,509.632ZM1737.29,506.126L1623.62,506.126L1614.2,525.093L1748.54,525.093L1737.29,506.126Z" style="fill:white;"/>
            </g>
        </g>
        <g transform="matrix(1,0,0,1,757.118,-7.76377)">
            <text x="958.086px" y="287.798px" style="font-family:'Lato-Regular', 'Lato', sans-serif;font-size:42px;fill:white;">Canteiro</text>
        </g>
    </g>
</svg>
