<?xml version="1.0" encoding="UTF-8" standalone="no"?>
<!DOCTYPE svg PUBLIC "-//W3C//DTD SVG 1.1//EN" "http://www.w3.org/Graphics/SVG/1.1/DTD/svg11.dtd">
<svg width="100%" height="100%" viewBox="0 0 182 232" version="1.1" xmlns="http://www.w3.org/2000/svg" xmlns:xlink="http://www.w3.org/1999/xlink" xml:space="preserve" xmlns:serif="http://www.serif.com/" style="fill-rule:evenodd;clip-rule:evenodd;stroke-linejoin:round;stroke-miterlimit:2;">
    <g transform="matrix(1,0,0,1,-948.187,-431.598)">
        <g transform="matrix(1,0,0,1,0,374.476)">
            <text x="976.566px" y="287.798px" style="font-family:'Lato-Regular', 'Lato', sans-serif;font-size:42px;fill:white;">Colher</text>
        </g>
        <g transform="matrix(1,0,0,1,5.56,-211.274)">
            <g id="Colher">
                <path d="M1033.59,642.872C1083.79,642.872 1124.55,683.629 1124.55,733.831C1124.55,784.033 1083.79,824.79 1033.59,824.79C983.384,824.79 942.627,784.033 942.627,733.831C942.627,683.629 983.384,642.872 1033.59,642.872ZM1063.55,709.041C1063.2,709.524 1054.11,721.814 1045.18,716.675C1046.21,720.043 1047.42,725.357 1047.12,731.177C1052.48,729.976 1065.38,728.408 1073.19,736.221C1083.63,746.665 1080.69,775.908 1063.56,784.815C1058.09,787.663 1052.31,788.429 1050.05,786.567C1047.8,788.429 1038.36,789.887 1032.05,786.16C1025.01,782.008 1012.09,758.691 1018.42,742.866C1023.71,729.626 1039.29,730.155 1044.89,731.228C1044.33,727.893 1042.41,717.823 1039.34,714.54L1043.69,713.004C1044.84,710.165 1048.96,706.037 1063.56,709.025C1063.56,709.025 1063.56,709.026 1063.56,709.027L1063.55,709.041ZM1020.35,726.411L1019.94,724.01L1019.08,719.125L1016.29,703.393L1019.42,705.933L1025.96,711.268L1031.46,715.754L1034.31,718.097C1034.62,717.63 1034.66,716.844 1034.67,716.281C1034.69,714.535 1033.99,712.826 1032.96,711.417C1031.59,709.523 1029.68,708.161 1027.91,706.672C1025.04,704.251 1022.15,701.85 1019.27,699.448C1018.17,698.531 1017.07,697.608 1015.97,696.692C1015.68,696.446 1014.87,695.988 1014.78,695.605C1014.55,694.605 1014.57,693.51 1014.37,692.49C1014.04,690.793 1013.45,689.144 1012.83,687.529C1012.56,686.821 1012.26,686.119 1012.06,685.387C1011.97,685.034 1011.88,684.634 1012.03,684.292C1012.17,683.984 1012.54,683.902 1012.85,683.886C1013.54,683.851 1014.14,683.884 1014.79,683.597C1015.47,683.292 1016.15,682.911 1016.69,682.378C1018.05,681.029 1018.35,678.985 1017.94,677.127C1017.33,674.358 1014.66,671.949 1011.84,671.97C1010.83,671.978 1009.98,672.349 1009.13,672.843C1008.59,673.158 1008.14,673.626 1007.76,674.12C1007.24,674.794 1006.93,675.575 1006.73,676.406C1006.25,678.348 1006.97,680.133 1007.94,681.812C1009.18,683.965 1010.81,686.009 1011.36,688.484C1011.64,689.777 1011.6,691.088 1011.15,692.319C1011.04,692.616 1010.87,693.266 1010.59,693.432C1010.3,693.603 1009.63,693.442 1009.31,693.392C1008.02,693.192 1006.8,692.666 1005.79,691.803C1002.51,689.009 1001.9,683.482 997.432,682.03C994.326,681.022 990.713,682.978 990.286,686.363C990.025,688.432 991.126,690.706 992.63,692.101C994.573,693.903 997.438,694.296 999.493,692.628C1000.09,692.147 1000.48,691.506 1000.97,690.928C1001.21,690.638 1001.5,690.35 1001.92,690.398C1002.26,690.438 1002.53,690.716 1002.76,690.963C1003.25,691.485 1003.68,692.056 1004.15,692.595C1005.29,693.917 1006.51,695.178 1007.84,696.312C1008.55,696.921 1009.45,697.446 1010.09,698.121C1010.38,698.432 1010.38,699.248 1010.47,699.659C1010.76,701.016 1011,702.384 1011.29,703.741C1012.08,707.41 1012.79,711.102 1013.5,714.784C1013.93,716.958 1014.18,719.307 1014.98,721.385C1015.85,723.646 1017.8,726.142 1020.35,726.411L1020.35,726.411ZM1046.41,713.843C1046.2,713.932 1045.99,714.018 1045.8,714.102C1045.6,714.186 1045.41,714.268 1045.23,714.346L1046.41,713.843ZM1046.71,713.716L1046.54,713.789L1047.08,713.565L1046.71,713.716ZM1049.49,712.617L1049.45,712.63L1049.64,712.558L1049.49,712.617ZM1050.83,712.126L1050.49,712.249L1050.83,712.126ZM1051.62,711.849L1051.4,711.923C1051.47,711.898 1051.55,711.874 1051.62,711.849ZM1052.27,711.626L1052.15,711.667L1052.27,711.626ZM1053.71,711.158L1053.81,711.129L1053.71,711.158ZM1054.85,710.813L1054.14,711.028L1054.85,710.813ZM1055.72,710.564L1055.34,710.671L1055.72,710.564ZM1056.01,710.484L1055.82,710.537L1056.01,710.484ZM1056.65,710.312L1056.11,710.457L1057.03,710.216L1056.65,710.312ZM1058.32,709.903C1058.13,709.947 1057.94,709.991 1057.75,710.037C1057.56,710.083 1057.37,710.13 1057.18,710.178C1057.56,710.082 1057.94,709.99 1058.32,709.903ZM1058.58,709.844L1058.52,709.857L1058.65,709.828L1058.58,709.844ZM1058.88,709.778L1058.74,709.807L1058.88,709.778ZM1059.08,709.735C1059.12,709.727 1059.15,709.719 1059.19,709.711C1059.12,709.726 1059.05,709.741 1058.98,709.756L1059.08,709.735ZM1060.58,709.441L1060.43,709.468L1060.58,709.441ZM1061.75,709.25L1061.28,709.322L1062.05,709.207L1061.75,709.25ZM1062.67,709.124L1062.53,709.142L1062.67,709.124ZM1062.97,709.089L1062.77,709.112L1062.97,709.089ZM999.591,685.701C999.875,686.083 1000.06,686.571 1000.16,687.031C1000.29,687.641 1000.36,688.308 1000.2,688.912C999.757,690.567 998.022,691.617 996.394,691.69C994.937,691.754 993.841,690.913 992.993,689.769C991.323,687.516 992.195,684.271 994.964,683.741C996.73,683.402 998.515,684.248 999.591,685.701ZM1015.34,675.726C1016.25,676.942 1016.45,678.599 1015.84,679.954C1014.98,681.882 1012.52,683.025 1010.57,681.899C1010.05,681.596 1009.6,681.135 1009.24,680.649C1007.25,677.968 1009.04,673.437 1012.54,673.885C1012.99,673.943 1013.43,674.097 1013.83,674.326C1014.43,674.676 1014.93,675.162 1015.34,675.726Z" style="fill:white;"/>
            </g>
        </g>
    </g>
</svg>
