<?xml version="1.0" encoding="UTF-8" standalone="no"?>
<!DOCTYPE svg PUBLIC "-//W3C//DTD SVG 1.1//EN" "http://www.w3.org/Graphics/SVG/1.1/DTD/svg11.dtd">
<svg width="100%" height="100%" viewBox="0 0 182 232" version="1.1" xmlns="http://www.w3.org/2000/svg" xmlns:xlink="http://www.w3.org/1999/xlink" xml:space="preserve" xmlns:serif="http://www.serif.com/" style="fill-rule:evenodd;clip-rule:evenodd;stroke-linejoin:round;stroke-miterlimit:2;">
    <g transform="matrix(1,0,0,1,-1204.18,-431.598)">
        <g transform="matrix(1,0,0,1,255.997,374.476)">
            <text x="976.86px" y="287.798px" style="font-family:'Lato-Regular', 'Lato', sans-serif;font-size:42px;fill:white;">Cuidar</text>
        </g>
        <g transform="matrix(1,0,0,1,48.0683,-211.274)">
            <g id="Cuidar">
                <path d="M1247.08,642.872C1297.28,642.872 1338.03,683.629 1338.03,733.831C1338.03,784.033 1297.28,824.79 1247.08,824.79C1196.87,824.79 1156.12,784.033 1156.12,733.831C1156.12,683.629 1196.87,642.872 1247.08,642.872ZM1229.97,713.733C1229.95,713.295 1229.95,712.853 1229.95,712.409C1229.95,692.501 1243.27,676.744 1259.07,676.744C1274.86,676.744 1288.19,692.501 1288.19,712.409C1288.19,712.853 1288.18,713.295 1288.17,713.733C1292.89,717.507 1295.92,723.314 1295.92,729.822L1295.92,758.326C1295.92,769.688 1286.69,778.913 1275.33,778.913L1242.81,778.913C1231.44,778.913 1222.22,769.688 1222.22,758.326L1222.22,729.822C1222.22,729.509 1222.23,729.197 1222.24,728.885C1219.79,727.36 1216.66,726.102 1213.07,726.161C1209.51,726.219 1205.6,727.717 1201.38,731.273C1201.36,731.295 1201.34,731.316 1201.31,731.338C1201.3,734.781 1200.9,740.589 1199.83,741.665C1198.32,743.174 1195.87,743.174 1194.36,741.665L1180.76,728.069C1179.26,726.56 1179.26,724.11 1180.76,722.6C1181.66,721.7 1186.58,721.438 1190.49,720.873C1198.49,713.665 1206.15,711.272 1212.82,711.164C1218.75,711.067 1224,712.91 1228.25,715.268C1228.79,714.725 1229.37,714.213 1229.97,713.733ZM1280.09,709.79C1279.1,695.925 1270.31,684.745 1259.07,684.745C1247.83,684.745 1239.03,695.925 1238.04,709.79C1239.57,709.427 1241.17,709.235 1242.81,709.235L1275.33,709.235C1276.97,709.235 1278.56,709.427 1280.09,709.79Z" style="fill:white;"/>
            </g>
        </g>
    </g>
</svg>
