<?xml version="1.0" encoding="UTF-8" standalone="no"?>
<!DOCTYPE svg PUBLIC "-//W3C//DTD SVG 1.1//EN" "http://www.w3.org/Graphics/SVG/1.1/DTD/svg11.dtd">
<svg width="100%" height="100%" viewBox="0 0 182 232" version="1.1" xmlns="http://www.w3.org/2000/svg" xmlns:xlink="http://www.w3.org/1999/xlink" xml:space="preserve" xmlns:serif="http://www.serif.com/" style="fill-rule:evenodd;clip-rule:evenodd;stroke-linejoin:round;stroke-miterlimit:2;">
    <g transform="matrix(1,0,0,1,-1460.18,-778.073)">
        <g transform="matrix(1,0,0,1,96.3963,-70.888)">
            <g id="Semear">
                <path d="M1454.75,848.961C1504.95,848.961 1545.7,889.719 1545.7,939.921C1545.7,990.122 1504.95,1030.88 1454.75,1030.88C1404.54,1030.88 1363.79,990.122 1363.79,939.921C1363.79,889.719 1404.54,848.961 1454.75,848.961ZM1450.49,967.766L1457.36,897.046C1457.49,895.724 1458.67,894.754 1459.99,894.883C1459.99,894.883 1463.29,895.204 1463.29,895.204C1464.61,895.332 1465.58,896.511 1465.45,897.833L1458.93,964.914C1471.63,961.566 1477.54,964.916 1488.22,965.965C1493.65,966.499 1495.93,964.362 1498.86,962.857C1502.54,960.966 1507.01,959.561 1516.98,962.836C1523.41,964.948 1526.91,968.972 1526.91,968.972C1527.82,969.993 1527.72,971.556 1526.7,972.459C1525.68,973.361 1524.11,973.265 1523.21,972.243C1523.21,972.243 1520.45,969.174 1515.44,967.53C1505.9,964.396 1502.67,966.356 1499.27,968.267C1496.36,969.903 1493.33,971.431 1487.74,970.882C1473.87,969.52 1468.52,963.9 1443.24,976.465C1437.1,979.519 1432.85,980.147 1429.64,979.674C1426.25,979.175 1423.89,977.456 1421.67,975.525C1419.54,973.676 1417.61,971.508 1414.08,971.253C1393.31,969.75 1395.46,971.478 1382.79,976.546C1381.53,977.053 1380.09,976.436 1379.58,975.17C1379.08,973.904 1379.69,972.466 1380.96,971.959C1394.51,966.537 1392.21,964.717 1414.44,966.325C1419.22,966.671 1422.02,969.286 1424.91,971.794C1426.45,973.131 1428.02,974.441 1430.36,974.787C1432.89,975.16 1436.19,974.451 1441.04,972.041C1444.52,970.311 1447.65,968.903 1450.49,967.766ZM1457.38,965.346L1463.96,897.688C1464.01,897.189 1463.64,896.745 1463.15,896.697C1463.15,896.697 1459.85,896.376 1459.85,896.376C1459.35,896.327 1458.9,896.693 1458.86,897.191L1452.05,967.153C1453.96,966.43 1455.73,965.833 1457.38,965.346Z" style="fill:white;"/>
            </g>
        </g>
        <g transform="matrix(1,0,0,1,516.945,720.951)">
            <text x="978.897px" y="287.798px" style="font-family:'Lato-Regular', 'Lato', sans-serif;font-size:42px;fill:white;">Estaca</text>
        </g>
    </g>
</svg>
