<?xml version="1.0" encoding="UTF-8" standalone="no"?>
<!DOCTYPE svg PUBLIC "-//W3C//DTD SVG 1.1//EN" "http://www.w3.org/Graphics/SVG/1.1/DTD/svg11.dtd">
<svg width="100%" height="100%" viewBox="0 0 182 232" version="1.1" xmlns="http://www.w3.org/2000/svg" xmlns:xlink="http://www.w3.org/1999/xlink" xml:space="preserve" xmlns:serif="http://www.serif.com/" style="fill-rule:evenodd;clip-rule:evenodd;stroke-linejoin:round;stroke-miterlimit:2;">
    <g transform="matrix(1,0,0,1,-1454.74,-431.598)">
        <g transform="matrix(1,0,0,1,506.558,374.476)">
            <text x="971.673px" y="287.798px" style="font-family:'Lato-Regular', 'Lato', sans-serif;font-size:42px;fill:white;">Plantar</text>
        </g>
        <g transform="matrix(1,0,0,1,106.727,-211.274)">
            <g id="Plantar">
                <path d="M1438.98,642.872C1489.18,642.872 1529.94,683.629 1529.94,733.831C1529.94,784.033 1489.18,824.79 1438.98,824.79C1388.78,824.79 1348.02,784.033 1348.02,733.831C1348.02,683.629 1388.78,642.872 1438.98,642.872ZM1434.21,699.112C1431.02,699.998 1424.97,701.084 1419.67,698.68C1412.05,695.221 1408.84,685.831 1408.84,685.831C1408.67,685.324 1408.93,684.771 1409.43,684.578C1409.43,684.578 1418.47,681.098 1426.08,684.553C1432.54,687.484 1435.92,694.472 1436.79,696.529C1438.9,694.731 1444.57,690.511 1451.15,690.584C1459.51,690.677 1466.23,697.66 1466.23,697.66C1466.6,698.047 1466.6,698.657 1466.23,699.043C1466.23,699.043 1459.34,706.19 1450.97,706.097C1444.76,706.028 1439.45,701.985 1437.13,699.909C1427.31,722.826 1438.86,745.767 1440.17,748.234C1443.55,746.203 1446.73,745.227 1449.73,744.924C1454.95,744.397 1459.69,745.94 1464.15,747.859C1469.18,750.021 1473.78,752.824 1478.52,752.272C1483.73,751.667 1485.34,747.985 1487.18,745.653C1488.39,744.127 1489.69,742.993 1491.32,742.503C1493.51,741.843 1496.64,742.273 1501.56,745.842C1506.85,749.674 1511.26,760.362 1511.26,760.362C1511.76,761.627 1511.15,763.067 1509.88,763.575C1508.62,764.083 1507.18,763.468 1506.67,762.203C1506.67,762.203 1503.12,753.075 1498.66,749.842C1496.95,748.601 1495.59,747.816 1494.45,747.422C1493.75,747.182 1493.21,747.094 1492.75,747.234C1492.29,747.372 1491.94,747.708 1491.59,748.089C1490.98,748.751 1490.41,749.571 1489.79,750.42C1487.62,753.345 1484.87,756.508 1479.09,757.18C1473.56,757.824 1468.08,754.923 1462.2,752.398C1458.49,750.802 1454.57,749.401 1450.23,749.84C1445.89,750.278 1441.19,752.586 1435.83,758.089C1428.84,765.267 1422.03,764.764 1415.2,761.98C1409.38,759.607 1403.57,755.301 1397.58,753.849C1391.74,752.434 1388.06,752.364 1385.44,753.246C1383.02,754.062 1381.63,755.719 1380.18,757.511C1377.63,760.662 1374.99,764.227 1369.25,766.527C1367.98,767.033 1366.54,766.416 1366.03,765.15C1365.53,763.885 1366.14,762.446 1367.41,761.939C1372.15,760.043 1374.24,756.999 1376.34,754.401C1378.38,751.881 1380.46,749.711 1383.86,748.564C1387.07,747.483 1391.59,747.314 1398.74,749.047C1404.96,750.555 1411.03,754.942 1417.07,757.405C1422.1,759.457 1427.13,759.932 1432.29,754.641C1434.14,752.747 1435.93,751.184 1437.66,749.907C1437.42,749.458 1423.66,724.339 1434.21,699.112ZM1464.06,698.352C1462.23,696.699 1457.16,692.651 1451.12,692.584C1445.09,692.517 1439.93,696.45 1438.07,698.062C1439.88,699.78 1444.95,704.03 1451,704.097C1457.04,704.165 1462.21,700.029 1464.06,698.352ZM1434.77,696.867C1433.76,694.619 1430.75,688.868 1425.26,686.375C1419.77,683.881 1413.45,685.398 1411.1,686.123C1412.06,688.424 1415,694.361 1420.5,696.859C1426,699.356 1432.4,697.658 1434.77,696.867Z" style="fill:white;"/>
            </g>
        </g>
    </g>
</svg>
