<?xml version="1.0" encoding="UTF-8" standalone="no"?>
<!DOCTYPE svg PUBLIC "-//W3C//DTD SVG 1.1//EN" "http://www.w3.org/Graphics/SVG/1.1/DTD/svg11.dtd">
<svg width="100%" height="100%" viewBox="0 0 182 274" version="1.1" xmlns="http://www.w3.org/2000/svg" xmlns:xlink="http://www.w3.org/1999/xlink" xml:space="preserve" xmlns:serif="http://www.serif.com/" style="fill-rule:evenodd;clip-rule:evenodd;stroke-linejoin:round;stroke-miterlimit:2;">
    <g transform="matrix(1,0,0,1,-1705.3,-431.598)">
        <g transform="matrix(1,0,0,1,757.118,374.476)">
            <text x="969.531px" y="287.798px" style="font-family:'Lato-Regular', 'Lato', sans-serif;font-size:42px;fill:white;">Ca<tspan x="1018.92px " y="287.798px ">v</tspan>ar e</text>
            <text x="976.776px" y="329.798px" style="font-family:'Lato-Regular', 'Lato', sans-serif;font-size:42px;fill:white;">Sachar</text>
        </g>
        <g transform="matrix(1.13625,0,0,1.13625,1000.95,-308.173)">
            <g id="Cavare-Sachar" serif:id="Cavare Sachar">
                <g>
                    <g transform="matrix(0.880087,0,0,0.880087,-743.719,85.2792)">
                        <path d="M1640.36,642.872C1690.56,642.872 1731.32,683.629 1731.32,733.831C1731.32,784.033 1690.56,824.79 1640.36,824.79C1590.16,824.79 1549.4,784.033 1549.4,733.831C1549.4,683.629 1590.16,642.872 1640.36,642.872ZM1641.76,712.078L1623.51,732.607C1623.01,733.169 1622.17,733.274 1621.55,732.853L1598.48,717.27C1598.12,717.028 1597.89,716.643 1597.83,716.214C1597.78,715.785 1597.91,715.353 1598.2,715.03L1623.97,686.055C1624.47,685.493 1625.31,685.388 1625.93,685.809L1628.04,687.234C1628.26,686.094 1628.68,684.972 1629.29,683.91C1632.3,678.695 1638.98,676.905 1644.19,679.916C1649.41,682.928 1651.2,689.606 1648.19,694.822C1647.57,695.891 1646.8,696.817 1645.92,697.586L1646.58,699.764L1648.99,701.392C1649.35,701.634 1649.59,702.019 1649.64,702.448C1649.69,702.877 1649.56,703.309 1649.27,703.632L1648.15,704.899L1670.34,777.779C1670.5,778.308 1670.2,778.867 1669.67,779.027L1663.75,780.833C1663.22,780.994 1662.66,780.696 1662.5,780.168L1641.76,712.078ZM1646.59,706.65L1643.32,710.326L1664.12,778.628L1668.13,777.405L1646.59,706.65ZM1644.92,694.307C1645.16,694 1645.39,693.672 1645.59,693.322C1647.78,689.54 1646.48,684.698 1642.69,682.515C1638.91,680.331 1634.07,681.629 1631.89,685.41C1631.08,686.804 1630.75,688.341 1630.84,689.837C1630.88,690.407 1630.59,690.948 1630.09,691.231C1629.59,691.514 1628.98,691.491 1628.51,691.171L1625.34,689.03L1601.58,715.743L1622.14,729.632L1640.74,708.715L1636.61,695.173C1636.53,694.886 1636.57,694.574 1636.74,694.325L1641.2,687.683C1641.41,687.362 1641.79,687.194 1642.17,687.251C1642.56,687.308 1642.87,687.579 1642.98,687.949L1644.92,694.307ZM1643.3,695.836L1641.68,690.546L1638.67,695.045L1642.3,706.963L1645.56,703.287L1645.34,702.544L1640.88,699.534C1640.41,699.214 1640.16,698.653 1640.24,698.087C1640.31,697.521 1640.71,697.049 1641.25,696.868C1641.97,696.626 1642.66,696.28 1643.3,695.836Z" style="fill:white;"/>
                    </g>
                    <g transform="matrix(0.647198,0,0,0.647198,-381.152,483.578)">
                        <path d="M1655.44,322.773C1655.29,320.352 1655.83,317.864 1657.13,315.609C1660.66,309.492 1668.5,307.393 1674.62,310.925C1680.73,314.457 1682.83,322.29 1679.3,328.408C1677.67,331.225 1675.13,333.189 1672.27,334.145L1681.02,340.052L1645.98,379.453L1614.62,358.263L1649.65,318.861L1655.44,322.773Z" style="fill:white;"/>
                    </g>
                </g>
            </g>
        </g>
    </g>
</svg>
