<?xml version="1.0" encoding="UTF-8" standalone="no"?>
<!DOCTYPE svg PUBLIC "-//W3C//DTD SVG 1.1//EN" "http://www.w3.org/Graphics/SVG/1.1/DTD/svg11.dtd">
<svg width="100%" height="100%" viewBox="0 0 182 232" version="1.1" xmlns="http://www.w3.org/2000/svg" xmlns:xlink="http://www.w3.org/1999/xlink" xml:space="preserve" xmlns:serif="http://www.serif.com/" style="fill-rule:evenodd;clip-rule:evenodd;stroke-linejoin:round;stroke-miterlimit:2;">
    <g transform="matrix(1,0,0,1,-948.187,-778.073)">
        <g transform="matrix(1,0,0,1,0,720.951)">
            <text x="969.657px" y="287.798px" style="font-family:'Lato-Regular', 'Lato', sans-serif;font-size:42px;fill:white;">Semear</text>
        </g>
        <g transform="matrix(1,0,0,1,-16.6794,-70.888)">
            <g id="Semear">
                <g>
                    <path d="M1055.83,848.961C1106.03,848.961 1146.79,889.719 1146.79,939.921C1146.79,990.122 1106.03,1030.88 1055.83,1030.88C1005.62,1030.88 964.866,990.122 964.866,939.921C964.866,889.719 1005.62,848.961 1055.83,848.961ZM1024.21,943.802C1024.85,935.314 1027.26,923.638 1035.16,915.742C1048.88,902.025 1074,904.838 1074,904.838C1074.45,904.89 1074.82,905.244 1074.88,905.697C1074.88,905.697 1076.13,914.927 1074.19,925.259C1073.5,928.924 1072.41,932.725 1070.72,936.308C1074.47,936.606 1077.98,937.836 1081.33,939.278C1086.37,941.44 1090.96,944.242 1095.7,943.691C1100.91,943.085 1102.52,939.403 1104.36,937.072C1105.57,935.546 1106.87,934.412 1108.5,933.921C1110.69,933.261 1113.82,933.692 1118.74,937.261C1124.03,941.093 1128.44,951.781 1128.44,951.781C1128.94,953.046 1128.33,954.486 1127.06,954.994C1125.8,955.502 1124.36,954.887 1123.85,953.622C1123.85,953.622 1120.3,944.493 1115.84,941.261C1114.13,940.019 1112.77,939.235 1111.63,938.841C1110.93,938.601 1110.39,938.512 1109.93,938.652C1109.46,938.791 1109.12,939.127 1108.77,939.507C1108.16,940.17 1107.6,940.99 1106.97,941.839C1104.8,944.763 1102.05,947.926 1096.27,948.599C1090.74,949.242 1085.26,946.342 1079.38,943.817C1075.67,942.22 1071.75,940.82 1067.41,941.258C1063.07,941.697 1058.37,944.004 1053.01,949.508C1046.01,956.686 1039.21,956.183 1032.38,953.399C1026.56,951.026 1020.75,946.72 1014.76,945.267C1008.92,943.853 1005.24,943.783 1002.62,944.665C1000.2,945.481 998.813,947.138 997.361,948.93C994.809,952.081 992.174,955.646 986.425,957.945C985.159,958.452 983.72,957.835 983.214,956.569C982.708,955.303 983.324,953.864 984.59,953.358C989.331,951.462 991.417,948.418 993.523,945.82C995.564,943.3 997.637,941.13 1001.04,939.983C1004.25,938.902 1008.77,938.733 1015.92,940.466C1018.71,941.143 1021.47,942.4 1024.21,943.802ZM1068.53,936.244C1070.37,932.593 1071.52,928.663 1072.22,924.889C1073.77,916.653 1073.22,909.141 1072.98,906.753C1068.73,906.409 1048.29,905.438 1036.57,917.156C1028.78,924.953 1026.6,936.613 1026.11,944.794C1028.84,946.236 1031.54,947.722 1034.25,948.824C1039.28,950.876 1044.32,951.351 1049.47,946.06C1055.92,939.439 1061.69,936.87 1066.91,936.343C1067.46,936.288 1068,936.255 1068.53,936.244Z" style="fill:white;"/>
                </g>
            </g>
        </g>
    </g>
</svg>
