<?xml version="1.0" encoding="UTF-8" standalone="no"?>
<!DOCTYPE svg PUBLIC "-//W3C//DTD SVG 1.1//EN" "http://www.w3.org/Graphics/SVG/1.1/DTD/svg11.dtd">
<svg width="100%" height="100%" viewBox="0 0 232 238" version="1.1" xmlns="http://www.w3.org/2000/svg" xmlns:xlink="http://www.w3.org/1999/xlink" xml:space="preserve" xmlns:serif="http://www.serif.com/" style="fill-rule:evenodd;clip-rule:evenodd;stroke-linejoin:round;stroke-miterlimit:2;">
    <g transform="matrix(1,0,0,1,-1179.29,-778.073)">
        <g transform="matrix(1,0,0,1,224.395,720.951)">
            <text x="954.304px" y="287.798px" style="font-family:'Lato-Regular', 'Lato', sans-serif;font-size:42px;fill:white;">T<tspan x="975.724px 991.852px " y="287.798px 287.798px ">ra</tspan>nsplantar</text>
        </g>
        <g transform="matrix(1,0,0,1,47.203,-70.5811)">
            <g id="Transplantar">
                <path d="M1247.94,848.655C1298.14,848.655 1338.9,889.412 1338.9,939.614C1338.9,989.815 1298.14,1030.57 1247.94,1030.57C1197.74,1030.57 1156.98,989.815 1156.98,939.614C1156.98,889.412 1197.74,848.655 1247.94,848.655ZM1269.96,946.547L1269.96,946.537C1269.96,945.093 1271.02,943.63 1273.12,942.431C1277.17,940.114 1285.33,938.488 1294.73,938.488C1304.13,938.488 1312.29,940.114 1316.34,942.431C1318.43,943.63 1319.5,945.093 1319.5,946.537L1319.49,946.547C1319.49,946.803 1319.46,947.06 1319.39,947.316L1314.65,979.942L1314.64,979.984C1313.88,984.002 1312.33,986.86 1310.03,988.525C1308.46,989.666 1306.52,990.265 1304.19,990.265L1285.26,990.265C1279.57,990.265 1276.48,986.057 1274.83,980.064C1274.82,980.024 1274.81,979.983 1274.81,979.942L1270.06,947.316C1270,947.06 1269.96,946.803 1269.96,946.547ZM1175.69,946.547L1175.69,946.537C1175.69,945.093 1176.75,943.63 1178.85,942.431C1182.9,940.114 1191.05,938.488 1200.45,938.488C1209.86,938.488 1218.01,940.114 1222.06,942.431C1224.16,943.63 1225.22,945.093 1225.22,946.537L1225.22,946.547C1225.22,946.803 1225.19,947.06 1225.12,947.316L1220.38,979.942L1220.37,979.984C1219.61,984.002 1218.06,986.86 1215.76,988.525C1214.18,989.666 1212.25,990.265 1209.92,990.265L1190.99,990.265C1185.29,990.265 1182.2,986.057 1180.56,980.064C1180.55,980.024 1180.54,979.983 1180.53,979.942L1175.79,947.316C1175.72,947.06 1175.69,946.803 1175.69,946.547ZM1272.51,950.271L1276.78,979.591C1278.15,984.569 1280.52,988.265 1285.26,988.265C1285.26,988.265 1304.19,988.265 1304.19,988.265C1308.92,988.265 1311.61,985.22 1312.67,979.631L1316.94,950.271C1316.75,950.397 1316.55,950.521 1316.34,950.643C1312.29,952.959 1304.13,954.585 1294.73,954.585C1285.33,954.585 1277.17,952.959 1273.12,950.643C1272.91,950.521 1272.7,950.397 1272.51,950.271ZM1178.24,950.271L1182.5,979.591C1183.88,984.569 1186.25,988.265 1190.99,988.265C1190.99,988.265 1209.92,988.265 1209.92,988.265C1214.64,988.265 1217.34,985.22 1218.4,979.631L1222.67,950.271C1222.48,950.397 1222.28,950.521 1222.06,950.643C1218.01,952.959 1209.86,954.585 1200.45,954.585C1191.05,954.585 1182.9,952.959 1178.85,950.643C1178.63,950.521 1178.43,950.397 1178.24,950.271ZM1294.73,939.808C1307.25,939.808 1317.42,942.823 1317.42,946.537C1317.42,950.25 1307.25,953.265 1294.73,953.265C1282.2,953.265 1272.04,950.25 1272.04,946.537C1272.04,942.823 1282.2,939.808 1294.73,939.808ZM1200.45,939.808C1212.98,939.808 1223.14,942.823 1223.14,946.537C1223.14,950.25 1212.98,953.265 1200.45,953.265C1187.93,953.265 1177.77,950.25 1177.77,946.537C1177.77,942.823 1187.93,939.808 1200.45,939.808ZM1242.38,901.116C1239.96,901.688 1236.1,902.153 1232.68,900.599C1227.19,898.106 1224.87,891.343 1224.87,891.343C1224.69,890.835 1224.95,890.283 1225.45,890.089C1225.45,890.089 1231.97,887.588 1237.45,890.078C1241.78,892.041 1244.19,896.528 1245.02,898.34C1246.73,896.943 1250.6,894.266 1255.06,894.316C1261.08,894.383 1265.92,899.409 1265.92,899.409C1266.3,899.796 1266.3,900.406 1265.92,900.792C1265.92,900.792 1260.96,905.937 1254.93,905.87C1250.79,905.824 1247.21,903.336 1245.37,901.778C1241.88,909.724 1241.17,914.75 1241.39,917.825C1241.45,918.511 1241.56,919.095 1241.69,919.576L1244.48,919.639L1246.36,918.31C1246.63,918.12 1246.98,918.075 1247.29,918.189L1251.64,919.803C1251.76,919.849 1251.88,919.918 1251.97,920.006L1255.67,923.424C1255.84,923.582 1255.95,923.794 1255.98,924.024C1255.98,924.024 1256.23,925.828 1256.2,927.32C1256.19,928.081 1256.09,928.77 1255.92,929.196C1255.5,930.183 1254.29,931.435 1253.74,931.962L1253.13,935.62C1253.09,935.895 1252.93,936.139 1252.69,936.292C1252.46,936.445 1252.17,936.494 1251.9,936.426C1251.9,936.426 1249.43,935.791 1248.54,935.791C1247.64,935.791 1243.8,936.89 1242.54,937.393C1241.45,937.826 1241,937.943 1240.54,937.864C1240.24,937.811 1239.91,937.663 1239.39,937.346C1239.34,937.348 1239.2,937.355 1239.11,937.374C1238.91,937.416 1238.7,937.489 1238.48,937.575C1237.57,937.947 1236.66,938.561 1236.66,938.561C1236.37,938.759 1236,938.789 1235.68,938.64C1235.36,938.491 1235.14,938.184 1235.11,937.834C1235.11,937.834 1234.93,936.043 1234.62,934.687C1234.52,934.245 1234.43,933.853 1234.3,933.665C1233.69,932.823 1232.4,929.616 1232.25,929.216L1229.77,924.122C1229.7,923.985 1229.66,923.836 1229.66,923.684L1229.66,921.121C1229.66,920.618 1230.04,920.193 1230.54,920.129L1234.98,919.559C1235.03,919.554 1235.07,919.551 1235.11,919.551L1238.62,919.548C1238.02,916.247 1238.35,910.529 1242.38,901.116ZM1239.18,921.548L1235.17,921.551L1231.66,922.001L1231.66,923.453L1234.06,928.373C1234.07,928.397 1234.08,928.421 1234.09,928.446C1234.09,928.446 1235.34,931.69 1235.92,932.499C1236.16,932.825 1236.39,933.474 1236.57,934.241C1236.71,934.84 1236.82,935.518 1236.91,936.109C1237.35,935.879 1237.85,935.653 1238.32,935.512C1239.14,935.269 1239.89,935.31 1240.38,935.61C1240.57,935.729 1240.8,935.847 1240.87,935.884C1240.96,935.85 1241.36,935.708 1241.8,935.534C1243.21,934.971 1247.54,933.791 1248.54,933.791C1249.15,933.791 1250.42,934.043 1251.34,934.243L1251.83,931.304C1251.86,931.079 1251.98,930.873 1252.15,930.722C1252.15,930.722 1253.66,929.417 1254.07,928.425C1254.18,928.167 1254.2,927.746 1254.2,927.287C1254.22,926.316 1254.11,925.199 1254.05,924.644L1250.76,921.61L1247.09,920.248L1245.36,921.463C1245.18,921.587 1244.98,921.651 1244.76,921.646L1242.68,921.599C1243.02,922.147 1239.74,922.976 1239.18,921.548ZM1292.84,932.041L1287.04,922.594L1298.64,922.594L1292.84,932.041ZM1212.54,906.894L1212.54,911.881C1205.32,911.881 1199.36,917.262 1198.43,924.227L1193.41,924.227C1194.36,914.504 1202.57,906.894 1212.54,906.894ZM1295.22,922.594L1290.23,922.594C1290.23,915.379 1284.85,909.412 1277.88,908.489L1277.88,903.469C1287.61,904.417 1295.22,912.624 1295.22,922.594ZM1221.98,909.27L1212.54,915.072L1212.54,903.469L1221.98,909.27ZM1263.74,900.101C1262.32,898.856 1258.97,896.36 1255.03,896.316C1251.1,896.272 1247.7,898.693 1246.24,899.906C1247.66,901.202 1251.01,903.826 1254.95,903.87C1258.89,903.914 1262.3,901.365 1263.74,900.101ZM1243.07,898.875C1242.27,897.159 1240.21,893.526 1236.63,891.9C1233.05,890.273 1228.96,891.117 1227.13,891.641C1227.91,893.398 1229.91,897.149 1233.51,898.778C1237.1,900.408 1241.24,899.449 1243.07,898.875Z" style="fill:white;"/>
            </g>
        </g>
    </g>
</svg>
